<svg t="1634821526798" class="icon" viewBox="0 0 1024 1024" version="1.1" xmlns="http://www.w3.org/2000/svg" p-id="2237" width="200" height="200"><path d="M400.7 860.6H169.6c-19.3 0-33.9-14.6-33.9-33.9V163.3c0-19.3 14.6-33.9 33.9-33.9H700c19.3 0 33.9 14.6 33.9 33.9v199.5c0 18.6 14 32.6 32.6 32.6s32.6-14 32.6-32.6V163.3c0-26.6-10.3-51.5-28.9-70.2-18.7-18.7-43.6-28.9-70.2-28.9H169.6c-26.6 0-51.5 10.3-70.2 28.9-18.7 18.7-28.9 43.6-28.9 70.2v663.4c0 26.6 10.3 51.5 28.9 70.2 18.7 18.7 43.6 28.9 70.2 28.9h232.8c18.6 0 32.6-14 32.6-32.6 0-18.2-15.1-32.6-34.3-32.6z" fill="" p-id="2238"></path><path d="M415.9 494.2c0-18.6-14-32.6-32.6-32.6H236.1c-18.6 0-32.6 14-32.6 32.6s14 32.6 32.6 32.6h147.3c17.9 0 32.5-14.6 32.5-32.6zM819.6 779.3l1.5-2.1c23.2-33.7 37-71.4 39.9-108.9 6.1-60.3-10.9-118.4-48-163.6-37-45.2-90.6-73.4-151-79.5-8.5-0.9-16.3-1.3-24-1.3-55.3 0-107.8 20-147.9 56.3-40.3 36.6-65.6 87.6-71.3 143.8-6.1 60.3 10.9 118.4 48 163.6 37 45.2 90.6 73.4 150.9 79.5 9.4 1 17.9 1.5 25.9 1.5 43.7 0 85.5-12.7 120.9-36.7l2-1.4 135.7 129.3h0.8l50.6-52.1v-0.8l-134-127.6z m-30.2-118.7c-7.4 75.3-73 134.3-149.4 134.3-4.8 0-9.8-0.2-14.4-0.7-81.5-8-141.5-81.5-133.5-163.9C499.5 555 565 496 641.3 496c4.8 0 9.7 0.2 14.6 0.7 81.5 8.1 141.4 81.6 133.5 163.9zM236.1 661.1c-18.6 0-32.6 14-32.6 32.6s14 32.6 32.6 32.6h99.8c18.6 0 32.6-14 32.6-32.6s-14-32.6-32.6-32.6h-99.8zM666.1 296.3c0-18.6-14-32.6-32.6-32.6H236.1c-18.6 0-32.6 14-32.6 32.6s14 32.6 32.6 32.6h397.4c17.1 0 32.6-15.5 32.6-32.6z" fill="" p-id="2239"></path></svg>