<svg t="1634821702181" class="icon" viewBox="0 0 1024 1024" version="1.1" xmlns="http://www.w3.org/2000/svg" p-id="3732" width="200" height="200"><path d="M515.218286 393.581714h143.945143v35.181715H515.218286v-35.108572z m0-83.163428h143.945143v31.963428H515.218286v-31.963428zM502.857143 64c-241.371429 0-438.857143 197.485714-438.857143 438.857143s197.485714 438.857143 438.857143 438.857143 438.857143-197.485714 438.857143-438.857143-197.485714-438.857143-438.857143-438.857143z m-58.075429 505.563429V256h278.381715v220.818286l44.836571 38.4c-25.6 16.018286-54.418286 35.181714-80.018286 47.981714 28.818286 25.6 54.418286 47.981714 70.436572 67.218286l-51.2 38.4c-32.036571-41.618286-102.4-105.618286-163.254857-150.381715l44.836571-32.036571c16.018286 12.8 35.181714 25.6 54.418286 41.618286 19.163429-12.8 41.618286-28.818286 57.563428-44.836572H512v108.836572l83.163429-16.018286c0 16.018286 0 41.618286 3.218285 57.563429-118.345143 25.6-140.8 32.036571-153.6 41.691428-3.218286-16.091429-19.163429-41.691429-28.818285-51.2 16.091429-9.654857 28.818286-25.6 28.818285-54.491428zM307.2 252.854857c32.036571 25.6 70.363429 63.926857 89.6 89.526857l-54.418286 41.618286c-15.945143-25.6-54.418286-64-86.381714-92.818286l51.2-38.4z m457.581714 502.345143c-38.4 3.218286-131.145143 6.436571-185.563428 6.436571-67.218286 0-118.418286-6.436571-163.181715-28.818285-25.6-12.8-44.836571-28.818286-60.854857-28.818286-19.163429 0-47.981714 32.036571-76.8 67.218286l-41.618285-57.636572c25.6-25.6 54.418286-44.763429 76.8-54.418285v-153.6h-63.926858v-64H384V656.091429c12.8 6.363429 25.6 16.018286 44.763429 25.6 38.473143 19.163429 92.891429 22.381714 153.6 22.381714 57.636571 0 147.236571-3.218286 201.654857-12.8a374.052571 374.052571 0 0 0-19.236572 64z" p-id="3733"></path></svg>